<svg id="Layer_1" data-name="Layer 1" xmlns="http://www.w3.org/2000/svg" viewBox="0 0 144.41 97.9"><defs><style>.cls-1{fill:#333333;}.cls-2{fill:#d01875;}</style></defs><title>LOGO Compact RGB CMI Standard</title><path class="cls-1" d="M245.69,128.45v0c-.1.3-9.38,28.44-12.75,39.56-3.3-11.13-12.36-39.23-12.46-39.53a7.86,7.86,0,0,0-7.88-5.94c-6.81,0-8.5,4.43-8.91,7.07l-6.17,49.71,0,0c-.06.23-.13.56-.23,1.18a37.79,37.79,0,0,0-.7,4.89c0,3.16,2.5,5.45,5.95,5.45,3.28,0,5.25-2,5.86-5.93.26-2.87,2.47-26.84,4.49-41.41,4.12,13.17,14.08,42,14.19,42.3,1.32,4.16,3.89,5,5.8,5,4.06,0,5.56-3.21,6.42-6s9.34-27,13.75-41.4c1.8,13.32,4.46,41.13,4.49,41.43.61,4,2.57,6,5.86,6,3.45,0,5.95-2.29,5.95-5.45a39,39,0,0,0-.71-4.91l-.2-1.18,0,.05a20.48,20.48,0,0,0-.22-2.16l-5.91-47.53c-.4-2.66-2.09-7.09-8.91-7.09a7.8,7.8,0,0,0-7.7,5.93Z" transform="translate(-141 -92.89)"/><path class="cls-1" d="M274,129.1v55.11c0,4.86,3.08,6.58,5.71,6.58s5.72-1.72,5.72-6.58V129.1c0-4.86-3.08-6.58-5.72-6.58S274,124.24,274,129.1Z" transform="translate(-141 -92.89)"/><path class="cls-1" d="M151,130.94a28.64,28.64,0,0,0-7.34,10.84A38.71,38.71,0,0,0,141,156.24c0,10.51,3.45,19,10.26,25.26,5.91,5.43,13.64,8.18,23,8.18,6.11,0,11.31-1.2,15.45-3.58,2.7-1.55,4-3.37,4-5.73a5,5,0,0,0-1.25-3.36,3.83,3.83,0,0,0-3.06-1.56,7.1,7.1,0,0,0-2.78.61l-4.86,2.06a22.09,22.09,0,0,1-21-3.61c-4.49-4-6.77-10.15-6.77-18.17s2.3-14.43,6.83-18.74c3.41-3.23,7.93-4.87,13.44-4.87a26.37,26.37,0,0,1,9.39,1.85,16.75,16.75,0,0,0,5.16,1.4,3.87,3.87,0,0,0,3.26-1.4,5.14,5.14,0,0,0,1.09-3.32c0-1.1,0-4.43-6.72-6.86a35,35,0,0,0-11.93-2c-9.34,0-17.24,2.86-23.46,8.5Z" transform="translate(-141 -92.89)"/><path class="cls-2" d="M247.25,106.94a14.06,14.06,0,1,1-14.05-14,14.06,14.06,0,0,1,14.05,14Z" transform="translate(-141 -92.89)"/></svg>